<?xml version="1.0" encoding="UTF-8"?>
<svg id="Layer_2" data-name="Layer 2" xmlns="http://www.w3.org/2000/svg" viewBox="0 0 53.5 53.5">
  <defs>
    <style>
      .cls-1 {
        fill: none;
        stroke: #260046;
        stroke-linecap: round;
        stroke-miterlimit: 10;
        stroke-width: 1.5px;
      }

      .cls-2 {
        fill: #fff;
      }

      .cls-2, .cls-3, .cls-4 {
        stroke-width: 0px;
      }

      .cls-3 {
        fill: #fbdacd;
      }

      .cls-4 {
        fill: #e94200;
      }
    </style>
  </defs>
  <g id="Layer_1-2" data-name="Layer 1">
    <g>
      <circle class="cls-3" cx="26.75" cy="26.75" r="26.75"/>
      <path class="cls-1" d="M30.23,15.11v21.16s.15,2.1-2.07,2.1-2.41-3.14-2.41-3.14"/>
      <path class="cls-4" d="M32.52,28.49s.62-1.77,2.4-1.74,2.66,1.74,2.66,1.74c0,0,.44-1.71,2.57-1.72,1.81,0,2.5,1.72,2.5,1.72,0,0-1.82-11.52-12.43-11.68s-12.97,11.68-12.97,11.68c0,0,1.36-1.71,2.98-1.71s2.62,1.63,2.62,1.63c0,0,.85-1.66,2.4-1.66s2.32,1.66,2.32,1.66c0,0,1.08-1.93,2.55-1.93s2.39,2.01,2.39,2.01Z"/>
      <path class="cls-1" d="M21.95,20.56v16.21s.12,1.61-1.58,1.61-1.85-2.4-1.85-2.4"/>
      <path class="cls-2" d="M23.71,30.8s.48-1.36,1.84-1.33,2.04,1.33,2.04,1.33c0,0,.34-1.31,1.97-1.31,1.39,0,1.92,1.31,1.92,1.31,0,0-1.4-8.83-9.52-8.94s-9.93,8.94-9.93,8.94c0,0,1.04-1.31,2.28-1.31s2.01,1.25,2.01,1.25c0,0,.65-1.27,1.84-1.27s1.78,1.27,1.78,1.27c0,0,.83-1.48,1.95-1.48s1.83,1.54,1.83,1.54Z"/>
    </g>
  </g>
</svg>