<?xml version="1.0" encoding="UTF-8"?>
<svg id="Layer_2" data-name="Layer 2" xmlns="http://www.w3.org/2000/svg" viewBox="0 0 53.5 53.5">
  <defs>
    <style>
      .cls-1 {
        fill: none;
        stroke: #260046;
        stroke-linecap: round;
        stroke-miterlimit: 10;
        stroke-width: 1.5px;
      }

      .cls-2 {
        fill: #fff;
      }

      .cls-2, .cls-3, .cls-4 {
        stroke-width: 0px;
      }

      .cls-3 {
        fill: #fbdacd;
      }

      .cls-4 {
        fill: #e94200;
      }
    </style>
  </defs>
  <g id="Layer_1-2" data-name="Layer 1">
    <g>
      <circle class="cls-3" cx="26.75" cy="26.75" r="26.75"/>
      <path class="cls-1" d="M27.68,7.76v30.11s.22,3-2.94,3-3.43-4.47-3.43-4.47"/>
      <path class="cls-4" d="M30.95,26.79s.89-2.52,3.42-2.47,3.79,2.47,3.79,2.47c0,0,.63-2.43,3.66-2.44,2.58,0,3.56,2.44,3.56,2.44,0,0-2.59-16.4-17.69-16.62S9.23,26.79,9.23,26.79c0,0,1.93-2.43,4.24-2.43s3.73,2.32,3.73,2.32c0,0,1.21-2.36,3.41-2.36s3.3,2.36,3.3,2.36c0,0,1.54-2.75,3.63-2.75s3.4,2.86,3.4,2.86Z"/>
      <g>
        <path class="cls-2" d="M22.06,15.12h.72l1.78,5.25h-.68l-.92-2.95c-.19-.59-.37-1.16-.53-1.77h-.03c-.17.61-.34,1.18-.53,1.77l-.94,2.95h-.65l1.78-5.25ZM21.21,18.23h2.4v.52h-2.4v-.52Z"/>
        <path class="cls-2" d="M25.96,19.36l2.42-1.63v-.03l-2.42-1.63v-.61l2.97,2.02v.49l-2.97,2.02v-.61Z"/>
        <path class="cls-2" d="M30.99,15.12h1.47c1.07,0,1.79.36,1.79,1.28,0,.52-.3.98-.92,1.14v.03c.77.12,1.22.54,1.22,1.26,0,1.03-.79,1.54-1.97,1.54h-1.59v-5.25ZM32.34,17.33c.92,0,1.28-.29,1.28-.89s-.42-.8-1.25-.8h-.76v1.69h.72ZM32.48,19.83c.91,0,1.44-.3,1.44-1.03,0-.66-.51-.93-1.44-.93h-.86v1.96h.86Z"/>
      </g>
    </g>
  </g>
</svg>