<?xml version="1.0" encoding="UTF-8"?>
<svg id="Layer_2" data-name="Layer 2" xmlns="http://www.w3.org/2000/svg" viewBox="0 0 53.5 53.5">
  <defs>
    <style>
      .cls-1 {
        fill: #ff7400;
      }

      .cls-1, .cls-2, .cls-3, .cls-4, .cls-5 {
        stroke-width: 0px;
      }

      .cls-2 {
        fill: #260046;
      }

      .cls-3 {
        fill: #fff;
      }

      .cls-4 {
        fill: #fbdacd;
      }

      .cls-5 {
        fill: #e94200;
      }
    </style>
  </defs>
  <g id="Layer_1-2" data-name="Layer 1">
    <g>
      <circle class="cls-4" cx="26.75" cy="26.75" r="26.75"/>
      <g>
        <path class="cls-2" d="M10.79,38.33h17.44c0-4.82-3.9-8.72-8.72-8.72s-8.72,3.9-8.72,8.72Z"/>
        <path class="cls-5" d="M21.9,38.33h20.84c0-5.76-4.67-10.42-10.42-10.42s-10.42,4.67-10.42,10.42Z"/>
        <g>
          <path class="cls-3" d="M36.9,21.78c.97,0,1.76.73,1.76,1.63s-.79,1.63-1.76,1.63h-1.88v-3.27h1.88Z"/>
          <path class="cls-3" d="M26.86,25.05c-.97,0-1.76-.73-1.76-1.63s.79-1.63,1.76-1.63h1.88s-.01,3.27-.01,3.27h-1.86Z"/>
          <ellipse class="cls-3" cx="31.89" cy="23.01" rx="5.68" ry="5.27"/>
          <path class="cls-3" d="M33.65,28.79c0,.9-.79,1.63-1.76,1.63s-1.76-.73-1.76-1.63v-1.74h3.52v1.74Z"/>
        </g>
        <g>
          <path class="cls-3" d="M23.39,24.97c.77,0,1.39.58,1.39,1.29s-.62,1.29-1.39,1.29h-1.49v-2.58h1.49Z"/>
          <path class="cls-3" d="M15.44,27.56c-.77,0-1.39-.58-1.39-1.29s.62-1.29,1.39-1.29h1.49s-.01,2.58-.01,2.58h-1.47Z"/>
          <ellipse class="cls-3" cx="19.42" cy="25.95" rx="4.49" ry="4.17"/>
          <path class="cls-3" d="M20.81,30.52c0,.71-.62,1.29-1.39,1.29s-1.39-.58-1.39-1.29v-1.38h2.78v1.38Z"/>
        </g>
        <path class="cls-2" d="M28.62,19.38s2.04,1.42,3.42,1.42,3.66-1.49,3.66-1.49c0,0,.27.68.77,1.33s1.23,1.32,1.23,1.32c0,0,.85-6.78-5.46-6.78s-5.88,6.68-5.88,6.68c0,0,1.87-1.51,2.27-2.47Z"/>
        <polygon class="cls-5" points="12.93 24.13 25.66 24.13 25.66 23.41 12.91 23.41 12.93 24.13"/>
        <path class="cls-5" d="M24.91,23.77h-10.97c0-3.59,2.46-6.5,5.49-6.5s5.49,2.91,5.49,6.5Z"/>
        <path class="cls-1" d="M18.53,18.11s-3.34,1.1-3.34,5.31h1.3s-.2-2.96,2.05-5.31Z"/>
        <path class="cls-1" d="M20.37,18.11s3.34,1.1,3.34,5.31h-1.3s.2-2.96-2.05-5.31Z"/>
        <polygon class="cls-1" points="18.81 23.32 20.37 23.32 19.42 18.11 18.81 23.32"/>
        <polygon class="cls-2" points="31.22 30.3 30.09 38.33 33.65 38.33 32.92 30.11 31.22 30.3"/>
      </g>
    </g>
  </g>
</svg>