<svg width="40" height="40" viewBox="0 0 40 40" fill="none" xmlns="http://www.w3.org/2000/svg">
<path fill-rule="evenodd" clip-rule="evenodd" d="M20.2984 5.61712C20.1375 5.34017 19.7372 5.34081 19.5772 5.61827L4.19119 32.2918C4.03096 32.5696 4.23144 32.9167 4.55212 32.9167H35.4373C35.7586 32.9167 35.959 32.5685 35.7976 32.2907L20.2984 5.61712ZM17.4116 4.36912C18.532 2.42692 21.3335 2.42246 22.46 4.3611L37.9591 31.0347C39.089 32.9791 37.6861 35.4167 35.4373 35.4167H4.55212C2.30738 35.4167 0.90403 32.9871 2.02564 31.0427L17.4116 4.36912ZM20 13.75C20.6904 13.75 21.25 14.3097 21.25 15V21.6667C21.25 22.357 20.6904 22.9167 20 22.9167C19.3097 22.9167 18.75 22.357 18.75 21.6667V15C18.75 14.3097 19.3097 13.75 20 13.75ZM18.75 28.3333C18.75 27.643 19.3097 27.0833 20 27.0833H20.0167C20.707 27.0833 21.2667 27.643 21.2667 28.3333C21.2667 29.0237 20.707 29.5833 20.0167 29.5833H20C19.3097 29.5833 18.75 29.0237 18.75 28.3333Z" fill="black"/>
</svg>
