<svg width="24" height="24" viewBox="0 0 24 24" fill="none" xmlns="http://www.w3.org/2000/svg">
<path fill-rule="evenodd" clip-rule="evenodd" d="M12 3C7.02944 3 3 7.02944 3 12C3 16.9706 7.02944 21 12 21C16.9706 21 21 16.9706 21 12C21 7.02944 16.9706 3 12 3ZM1 12C1 5.92487 5.92487 1 12 1C18.0751 1 23 5.92487 23 12C23 18.0751 18.0751 23 12 23C5.92487 23 1 18.0751 1 12ZM12.258 8.02428C11.7924 7.94443 11.3137 8.03191 10.9065 8.27122C10.4993 8.51054 10.1899 8.88625 10.0332 9.3318C9.84991 9.85279 9.27899 10.1266 8.758 9.94329C8.23701 9.76002 7.96324 9.1891 8.14651 8.66812C8.45998 7.77701 9.07871 7.02559 9.89312 6.54696C10.7075 6.06833 11.665 5.89337 12.5961 6.05306C13.5271 6.21276 14.3716 6.69682 14.9799 7.41949C15.5882 8.14201 15.9211 9.05644 15.9198 10.0009C15.9194 11.5312 14.7848 12.5418 13.9745 13.082C13.5941 13.3357 13.219 13.5307 12.9198 13.6695V13.9999C12.9198 14.5522 12.4721 14.9999 11.9198 14.9999C11.3676 14.9999 10.9198 14.5522 10.9198 13.9999V13C10.9198 12.5697 11.195 12.1877 11.6031 12.0514L11.6185 12.046C11.6339 12.0406 11.6591 12.0314 11.6928 12.0186C11.7602 11.9929 11.8605 11.9529 11.9825 11.8986C12.2293 11.7889 12.5508 11.6275 12.8651 11.4179C13.5547 10.9582 13.9198 10.4691 13.9198 9.99996L13.9198 9.99847C13.9205 9.52615 13.7541 9.06882 13.4499 8.70749C13.1457 8.34615 12.7235 8.10413 12.258 8.02428ZM11 17C11 16.4477 11.4477 16 12 16H12.01C12.5623 16 13.01 16.4477 13.01 17C13.01 17.5523 12.5623 18 12.01 18H12C11.4477 18 11 17.5523 11 17Z" fill="black"/>
</svg>
