<svg width="24" height="36" viewBox="0 0 24 36" fill="none" xmlns="http://www.w3.org/2000/svg">
<path fill-rule="evenodd" clip-rule="evenodd" d="M13.2416 1.60422C13.1694 0.98255 12.641 0.5 12 0.5C11.3096 0.5 10.75 1.05964 10.75 1.75V31.1355L2.90296 22.9389L2.7875 22.8323C2.30557 22.4404 1.59595 22.4596 1.13562 22.9003C0.636925 23.3777 0.619655 24.1689 1.09704 24.6676L11.0767 35.0926C11.3053 35.343 11.6343 35.5 12 35.5C12.3657 35.5 12.6948 35.3429 12.9233 35.0926L22.903 24.6676L23.0044 24.5476C23.3748 24.0491 23.3247 23.341 22.8644 22.9003C22.3657 22.4229 21.5744 22.4402 21.097 22.9389L13.25 31.1355V1.75L13.2416 1.60422Z" fill="black"/>
</svg>
