<svg width="24" height="24" viewBox="0 0 24 24" fill="none" xmlns="http://www.w3.org/2000/svg">
<path fill-rule="evenodd" clip-rule="evenodd" d="M1.60432 19.8685L11.3543 3.36845C11.6446 2.87718 12.3554 2.87718 12.6457 3.36845L22.3957 19.8685C22.6911 20.3684 22.3307 21 21.75 21H2.25001C1.66929 21 1.30889 20.3684 1.60432 19.8685ZM20.436 19.5L12 5.22298L3.56326 19.5H20.436ZM12 16.7604L12.0989 16.7651C12.6197 16.8149 13.0268 17.2541 13.0268 17.7871C13.0268 18.3544 12.5672 18.8139 12 18.8139C11.4328 18.8139 10.9733 18.3544 10.9733 17.7871C10.9733 17.2541 11.3803 16.8149 11.9011 16.7651L12 16.7604ZM12.745 8.86224C12.7016 8.48924 12.3846 8.19971 12 8.19971C11.5858 8.19971 11.25 8.53549 11.25 8.94971V14.4877L11.2551 14.5752C11.2984 14.9482 11.6154 15.2377 12 15.2377C12.4142 15.2377 12.75 14.9019 12.75 14.4877V8.94971L12.745 8.86224Z" fill="#B00116"/>
</svg>
