<svg width="12" height="12" viewBox="0 0 12 12" fill="none" xmlns="http://www.w3.org/2000/svg">
<path fill-rule="evenodd" clip-rule="evenodd" d="M6 0.375C2.90625 0.375 0.375 2.90625 0.375 6C0.375 9.09375 2.90625 11.625 6 11.625C9.09375 11.625 11.625 9.09375 11.625 6C11.625 2.90625 9.09375 0.375 6 0.375ZM3.89977 8.47504C3.80377 8.47504 3.70777 8.43829 3.63465 8.36517C3.48802 8.21854 3.48802 7.98154 3.63465 7.83492L5.46956 6L3.63473 4.16517C3.4881 4.01854 3.4881 3.78117 3.63473 3.63492C3.78098 3.48829 4.01835 3.48829 4.16498 3.63492L5.99981 5.46975L7.83465 3.63492C7.98128 3.48829 8.21865 3.48829 8.3649 3.63492C8.51153 3.78117 8.51153 4.01854 8.3649 4.16517L6.53006 6L8.36498 7.83492C8.5116 7.98154 8.5116 8.21854 8.36498 8.36517C8.29185 8.43829 8.19585 8.47504 8.09985 8.47504C8.00385 8.47504 7.90785 8.43829 7.83473 8.36517L5.99981 6.53025L4.1649 8.36517C4.09177 8.43829 3.99577 8.47504 3.89977 8.47504Z" fill="#B00116"/>
</svg>
