<svg width="19" height="20" viewBox="0 0 19 20" fill="none" xmlns="http://www.w3.org/2000/svg">
<path fill-rule="evenodd" clip-rule="evenodd" d="M8.28675 9.53049L8.018 11.413L9.89987 11.1436L15.9698 5.07422L14.3567 3.46109L8.28675 9.53049ZM17.2955 5.51618L17.2892 5.52238L10.6367 12.1748C10.5405 12.2705 10.4167 12.3323 10.283 12.3517L7.36987 12.7686C7.3405 12.7723 7.3105 12.7748 7.28175 12.7748C7.11675 12.7748 6.95738 12.7098 6.83987 12.5917C6.7005 12.453 6.63487 12.2561 6.66237 12.0611L7.07862 9.14734C7.09862 9.01359 7.15987 8.88984 7.25612 8.79422L13.898 2.15184C13.9033 2.14612 13.9087 2.14049 13.9142 2.13493C13.9196 2.12958 13.925 2.12435 13.9306 2.11923L14.7474 1.30234C15.6492 0.399219 17.2249 0.399219 18.128 1.30234C18.5799 1.75422 18.828 2.35422 18.828 2.99297C18.828 3.63172 18.5799 4.23172 18.128 4.68359L17.3017 5.50987L17.2955 5.51618ZM15.6311 2.18674L15.2405 2.57738L16.8536 4.19051L17.2442 3.79987C17.4599 3.58424 17.578 3.29737 17.578 2.99299C17.578 2.68862 17.4599 2.40174 17.2442 2.18674C16.8136 1.75549 16.0617 1.75549 15.6311 2.18674ZM1.9275 19.3522H13.595C14.5887 19.3522 15.3975 18.5441 15.3975 17.5503V11.9759C15.3975 11.6309 15.1181 11.3509 14.7725 11.3509C14.4269 11.3509 14.1475 11.6309 14.1475 11.9759V17.5503C14.1475 17.8547 13.8994 18.1022 13.595 18.1022H1.9275C1.62313 18.1022 1.375 17.8547 1.375 17.5503V5.88219C1.375 5.57782 1.62313 5.32969 1.9275 5.32969H8.02063C8.36625 5.32969 8.64563 5.05032 8.64563 4.70469C8.64563 4.35969 8.36625 4.07969 8.02063 4.07969H1.9275C0.93375 4.07969 0.125 4.88844 0.125 5.88219V17.5503C0.125 18.5441 0.93375 19.3522 1.9275 19.3522Z" fill="white"/>
</svg>
