<svg width="24" height="24" viewBox="0 0 24 24" fill="none" xmlns="http://www.w3.org/2000/svg">
<path fill-rule="evenodd" clip-rule="evenodd" d="M2.25 12C2.25 17.376 6.624 21.75 12 21.75C17.376 21.75 21.75 17.376 21.75 12C21.75 6.624 17.376 2.25 12 2.25C6.624 2.25 2.25 6.624 2.25 12ZM0.75 12C0.75 5.79675 5.79675 0.75 12 0.75C18.2033 0.75 23.25 5.79675 23.25 12C23.25 18.2033 18.2033 23.25 12 23.25C5.79675 23.25 0.75 18.2033 0.75 12ZM11.6499 8.54991C12.2566 8.54991 12.7501 8.05641 12.7501 7.44966C12.7501 6.84366 12.2566 6.35016 11.6499 6.35016C11.0431 6.35016 10.5497 6.84366 10.5497 7.44966C10.5497 8.05641 11.0431 8.54991 11.6499 8.54991ZM14.0998 15.4501H13.3993C13.0416 15.4501 12.7498 15.1583 12.7498 14.7998V11.2996C12.7498 10.5001 12.0996 9.84982 11.3001 9.84982H10.5996C10.1848 9.84982 9.8496 10.1858 9.8496 10.5998C9.8496 11.0138 10.1848 11.3498 10.5996 11.3498L11.2498 11.2996V14.7998C11.2498 15.9856 12.2143 16.9501 13.3993 16.9501H14.0998C14.5146 16.9501 14.8498 16.6141 14.8498 16.2001C14.8498 15.7861 14.5146 15.4501 14.0998 15.4501Z" fill="#260046"/>
</svg>
