<svg width="18" height="20" viewBox="0 0 18 20" fill="none" xmlns="http://www.w3.org/2000/svg">
<path fill-rule="evenodd" clip-rule="evenodd" d="M9.84943 5.2458L9.85006 2.42018L11.9613 3.8333L9.84943 5.2458ZM8.93006 6.96705C9.02256 7.01642 9.12381 7.04142 9.22443 7.04142C9.34568 7.04142 9.46756 7.0058 9.57193 6.9358L13.4319 4.35267C13.6057 4.23642 13.7101 4.04205 13.7101 3.8333C13.7101 3.62455 13.6063 3.42955 13.4326 3.31392L9.57256 0.730799C9.38131 0.602674 9.13381 0.589549 8.93068 0.698924C8.72693 0.807674 8.60006 1.01955 8.60006 1.25017L8.59982 3.19517C6.6421 3.28019 4.80749 4.06294 3.38062 5.42336C0.150619 8.5021 0.026869 13.6352 3.10624 16.8659C4.69437 18.5321 6.82812 19.3715 8.96687 19.3715C10.9737 19.3715 12.985 18.6309 14.5487 17.1402C16.1037 15.6584 16.9937 13.6602 17.055 11.514C17.065 11.169 16.7931 10.8815 16.4481 10.8709C16.0962 10.8634 15.815 11.1327 15.805 11.4784C15.7531 13.2927 15.0006 14.9827 13.6862 16.2352C10.955 18.8377 6.61437 18.7352 4.01062 16.0027C1.40749 13.2715 1.51124 8.93148 4.24249 6.32773C5.43619 5.19107 6.96917 4.53243 8.59967 4.44719L8.59943 6.41642C8.59943 6.64705 8.72631 6.85892 8.93006 6.96705Z" fill="#260046"/>
</svg>
