<svg width="24" height="24" viewBox="0 0 24 24" fill="none" xmlns="http://www.w3.org/2000/svg">
<path fill-rule="evenodd" clip-rule="evenodd" d="M1.5 12C1.5 6.20079 6.20079 1.5 12 1.5C17.7992 1.5 22.5 6.20079 22.5 12C22.5 17.7992 17.7992 22.5 12 22.5C6.20079 22.5 1.5 17.7992 1.5 12ZM21 12C21 7.02921 16.9708 3 12 3C7.02921 3 3 7.02921 3 12C3 16.9708 7.02921 21 12 21C16.9708 21 21 16.9708 21 12ZM12 6.75889C12.3846 6.75889 12.7016 7.04842 12.745 7.42142L12.75 7.50889V12.8984C12.75 13.3126 12.4142 13.6484 12 13.6484C11.6154 13.6484 11.2984 13.3589 11.255 12.9859L11.25 12.8984V7.50889C11.25 7.09467 11.5858 6.75889 12 6.75889ZM12.8977 16.4907C12.8977 15.995 12.4958 15.593 12 15.593C11.5043 15.593 11.1023 15.995 11.1023 16.4907C11.1023 16.9872 11.5043 17.3892 12 17.3892C12.4958 17.3892 12.8977 16.9872 12.8977 16.4907Z" fill="#F7931E"/>
</svg>
