<svg width="18" height="18" viewBox="0 0 18 18" fill="none" xmlns="http://www.w3.org/2000/svg">
<path fill-rule="evenodd" clip-rule="evenodd" d="M1 0C1.55228 0 2 0.447715 2 1V8C2 8.79565 2.31607 9.55871 2.87868 10.1213C3.44129 10.6839 4.20435 11 5 11H14.5858L11.2929 7.70711C10.9024 7.31658 10.9024 6.68342 11.2929 6.29289C11.6834 5.90237 12.3166 5.90237 12.7071 6.29289L17.7071 11.2929C18.0976 11.6834 18.0976 12.3166 17.7071 12.7071L12.7071 17.7071C12.3166 18.0976 11.6834 18.0976 11.2929 17.7071C10.9024 17.3166 10.9024 16.6834 11.2929 16.2929L14.5858 13H5C3.67392 13 2.40215 12.4732 1.46447 11.5355C0.526784 10.5979 0 9.32608 0 8V1C0 0.447715 0.447715 0 1 0Z" fill="#29803D"/>
</svg>
